<?xml version="1.0" standalone="no"?>
<!DOCTYPE svg PUBLIC "-//W3C//DTD SVG 20010904//EN"
 "http://www.w3.org/TR/2001/REC-SVG-20010904/DTD/svg10.dtd">
<svg version="1.0" xmlns="http://www.w3.org/2000/svg"
 width="260.000000pt" height="260.000000pt" viewBox="0 0 260.000000 260.000000"
 preserveAspectRatio="xMidYMid meet">
<metadata>
Created by potrace 1.14, written by Peter Selinger 2001-2017
</metadata>
<g transform="translate(0.000000,260.000000) scale(0.100000,-0.100000)"
fill="#000000" stroke="none">
<path d="M1132 2589 c-534 -69 -978 -473 -1098 -999 -165 -718 310 -1435 1036
-1566 189 -34 434 -19 610 38 133 43 162 61 272 171 59 58 110 102 113 99 4
-4 6 -2 5 3 -4 19 0 35 10 35 12 0 90 79 90 91 0 5 6 9 13 9 8 0 20 11 27 25
8 15 20 23 27 20 8 -2 11 -1 8 4 -3 5 8 22 25 38 76 70 124 118 122 122 -2 2
7 9 20 16 13 6 22 17 20 24 -1 7 2 10 7 7 5 -3 15 2 22 11 12 14 12 16 -1 8
-8 -4 -5 2 7 13 43 43 104 251 123 423 42 380 -113 792 -400 1063 -285 267
-676 395 -1058 345z m218 -634 l0 -64 38 -6 c81 -14 149 -38 199 -70 80 -53
143 -159 143 -242 l0 -34 -147 3 -146 3 -10 30 c-11 34 -33 62 -60 76 -17 9
-17 2 -15 -117 l3 -126 90 -28 c127 -38 157 -53 210 -101 74 -68 90 -107 90
-219 0 -83 -3 -101 -27 -145 -54 -103 -161 -174 -295 -197 l-73 -12 0 -63 0
-63 -55 0 -55 0 0 65 c0 62 -1 65 -27 70 -205 42 -306 118 -348 259 -27 91
-35 86 134 86 l149 0 12 -34 c10 -30 37 -63 68 -80 9 -6 12 21 12 121 l0 128
-62 17 c-160 42 -254 102 -300 192 -29 56 -35 165 -14 239 21 72 93 152 171
191 46 22 162 55 198 56 4 0 7 29 7 65 l0 65 55 0 55 0 0 -65z"/>
<path d="M1220 1663 c-8 -3 -27 -17 -42 -31 -23 -21 -28 -35 -28 -70 0 -38 5
-50 36 -78 19 -19 40 -34 45 -34 5 0 9 49 9 110 0 61 -1 110 -2 109 -2 0 -10
-3 -18 -6z"/>
<path d="M1350 1046 l0 -115 30 11 c43 15 70 53 70 100 0 22 -4 48 -10 58 -9
17 -69 60 -84 60 -3 0 -6 -52 -6 -114z"/>
</g>
</svg>
